<mxfile host="Electron" modified="2023-07-25T08:38:48.037Z" agent="Mozilla/5.0 (X11; Linux x86_64) AppleWebKit/537.36 (KHTML, like Gecko) draw.io/21.6.5 Chrome/114.0.5735.243 Electron/25.3.1 Safari/537.36" etag="5ocR8Y7iq2ZPIy-cA321" version="21.6.5" type="device">
  <diagram id="R2lEEEUBdFMjLlhIrx00" name="Page-1">
    <mxGraphModel dx="1311" dy="780" grid="0" gridSize="10" guides="1" tooltips="1" connect="1" arrows="1" fold="1" page="1" pageScale="1" pageWidth="850" pageHeight="1100" math="0" shadow="0" extFonts="Permanent Marker^https://fonts.googleapis.com/css?family=Permanent+Marker">
      <root>
        <mxCell id="0" />
        <mxCell id="1" parent="0" />
        <mxCell id="RfDgtVIOhLXn0lKdOV8g-113" style="edgeStyle=orthogonalEdgeStyle;rounded=1;orthogonalLoop=1;jettySize=auto;html=1;entryX=1;entryY=0.5;entryDx=0;entryDy=0;labelBackgroundColor=none;strokeColor=#457B9D;fontColor=default;" parent="1" source="RfDgtVIOhLXn0lKdOV8g-14" target="RfDgtVIOhLXn0lKdOV8g-73" edge="1">
          <mxGeometry relative="1" as="geometry" />
        </mxCell>
        <mxCell id="RfDgtVIOhLXn0lKdOV8g-14" value="Poster" style="ellipse;whiteSpace=wrap;html=1;startSize=30;fontStyle=1;labelBackgroundColor=none;rounded=1;fillColor=#A8DADC;strokeColor=#457B9D;fontColor=#1D3557;" parent="1" vertex="1">
          <mxGeometry x="450" y="225" width="160" height="80" as="geometry" />
        </mxCell>
        <mxCell id="RfDgtVIOhLXn0lKdOV8g-109" style="edgeStyle=orthogonalEdgeStyle;rounded=1;orthogonalLoop=1;jettySize=auto;html=1;labelBackgroundColor=none;strokeColor=#457B9D;fontColor=default;" parent="1" source="RfDgtVIOhLXn0lKdOV8g-25" edge="1">
          <mxGeometry relative="1" as="geometry">
            <mxPoint x="270" y="700" as="targetPoint" />
            <Array as="points">
              <mxPoint x="270" y="700" />
            </Array>
          </mxGeometry>
        </mxCell>
        <mxCell id="RfDgtVIOhLXn0lKdOV8g-25" value="Commenter" style="ellipse;whiteSpace=wrap;html=1;startSize=30;fontStyle=1;labelBackgroundColor=none;rounded=1;fillColor=#A8DADC;strokeColor=#457B9D;fontColor=#1D3557;" parent="1" vertex="1">
          <mxGeometry x="440" y="660" width="180" height="80" as="geometry" />
        </mxCell>
        <mxCell id="RfDgtVIOhLXn0lKdOV8g-114" style="edgeStyle=orthogonalEdgeStyle;rounded=1;orthogonalLoop=1;jettySize=auto;html=1;entryX=0.556;entryY=1;entryDx=0;entryDy=0;entryPerimeter=0;labelBackgroundColor=none;strokeColor=#457B9D;fontColor=default;" parent="1" source="RfDgtVIOhLXn0lKdOV8g-38" target="RfDgtVIOhLXn0lKdOV8g-102" edge="1">
          <mxGeometry relative="1" as="geometry">
            <mxPoint x="180" y="319.9999999999998" as="targetPoint" />
          </mxGeometry>
        </mxCell>
        <mxCell id="RfDgtVIOhLXn0lKdOV8g-38" value="Appartient" style="ellipse;whiteSpace=wrap;html=1;startSize=30;fontStyle=1;labelBackgroundColor=none;rounded=1;fillColor=#A8DADC;strokeColor=#457B9D;fontColor=#1D3557;" parent="1" vertex="1">
          <mxGeometry x="70" y="390" width="220" height="80" as="geometry" />
        </mxCell>
        <mxCell id="RfDgtVIOhLXn0lKdOV8g-108" style="edgeStyle=orthogonalEdgeStyle;rounded=1;orthogonalLoop=1;jettySize=auto;html=1;entryX=1;entryY=0.5;entryDx=0;entryDy=0;labelBackgroundColor=none;strokeColor=#457B9D;fontColor=default;" parent="1" source="RfDgtVIOhLXn0lKdOV8g-47" target="RfDgtVIOhLXn0lKdOV8g-25" edge="1">
          <mxGeometry relative="1" as="geometry">
            <Array as="points">
              <mxPoint x="720" y="700" />
            </Array>
          </mxGeometry>
        </mxCell>
        <mxCell id="RfDgtVIOhLXn0lKdOV8g-112" style="edgeStyle=orthogonalEdgeStyle;rounded=1;orthogonalLoop=1;jettySize=auto;html=1;entryX=1;entryY=0.5;entryDx=0;entryDy=0;labelBackgroundColor=none;strokeColor=#457B9D;fontColor=default;" parent="1" source="RfDgtVIOhLXn0lKdOV8g-47" target="RfDgtVIOhLXn0lKdOV8g-14" edge="1">
          <mxGeometry relative="1" as="geometry">
            <Array as="points">
              <mxPoint x="720" y="265" />
            </Array>
          </mxGeometry>
        </mxCell>
        <mxCell id="RfDgtVIOhLXn0lKdOV8g-47" value="Utilisateur" style="shape=table;startSize=30;container=1;collapsible=0;childLayout=tableLayout;fixedRows=1;rowLines=0;fontStyle=1;strokeColor=#457B9D;fontSize=16;rounded=1;labelBackgroundColor=none;fillColor=#A8DADC;fontColor=#1D3557;" parent="1" vertex="1">
          <mxGeometry x="630" y="370" width="180" height="150" as="geometry" />
        </mxCell>
        <mxCell id="RfDgtVIOhLXn0lKdOV8g-48" value="" style="shape=tableRow;horizontal=0;startSize=0;swimlaneHead=0;swimlaneBody=0;top=0;left=0;bottom=0;right=0;collapsible=0;dropTarget=0;fillColor=none;points=[[0,0.5],[1,0.5]];portConstraint=eastwest;strokeColor=#457B9D;fontSize=16;rounded=1;labelBackgroundColor=none;fontColor=#1D3557;" parent="RfDgtVIOhLXn0lKdOV8g-47" vertex="1">
          <mxGeometry y="30" width="180" height="30" as="geometry" />
        </mxCell>
        <mxCell id="RfDgtVIOhLXn0lKdOV8g-49" value="PK" style="shape=partialRectangle;html=1;whiteSpace=wrap;connectable=0;fillColor=none;top=0;left=0;bottom=0;right=0;overflow=hidden;pointerEvents=1;strokeColor=#457B9D;fontSize=16;rounded=1;labelBackgroundColor=none;fontColor=#1D3557;" parent="RfDgtVIOhLXn0lKdOV8g-48" vertex="1">
          <mxGeometry width="40" height="30" as="geometry">
            <mxRectangle width="40" height="30" as="alternateBounds" />
          </mxGeometry>
        </mxCell>
        <mxCell id="RfDgtVIOhLXn0lKdOV8g-50" value="&lt;u&gt;id&lt;/u&gt;" style="shape=partialRectangle;html=1;whiteSpace=wrap;connectable=0;fillColor=none;top=0;left=0;bottom=0;right=0;align=left;spacingLeft=6;overflow=hidden;strokeColor=#457B9D;fontSize=16;rounded=1;labelBackgroundColor=none;fontColor=#1D3557;" parent="RfDgtVIOhLXn0lKdOV8g-48" vertex="1">
          <mxGeometry x="40" width="140" height="30" as="geometry">
            <mxRectangle width="140" height="30" as="alternateBounds" />
          </mxGeometry>
        </mxCell>
        <mxCell id="RfDgtVIOhLXn0lKdOV8g-57" style="shape=tableRow;horizontal=0;startSize=0;swimlaneHead=0;swimlaneBody=0;top=0;left=0;bottom=0;right=0;collapsible=0;dropTarget=0;fillColor=none;points=[[0,0.5],[1,0.5]];portConstraint=eastwest;strokeColor=#457B9D;fontSize=16;rounded=1;labelBackgroundColor=none;fontColor=#1D3557;" parent="RfDgtVIOhLXn0lKdOV8g-47" vertex="1">
          <mxGeometry y="60" width="180" height="30" as="geometry" />
        </mxCell>
        <mxCell id="RfDgtVIOhLXn0lKdOV8g-58" style="shape=partialRectangle;html=1;whiteSpace=wrap;connectable=0;fillColor=none;top=0;left=0;bottom=0;right=0;overflow=hidden;pointerEvents=1;strokeColor=#457B9D;fontSize=16;rounded=1;labelBackgroundColor=none;fontColor=#1D3557;" parent="RfDgtVIOhLXn0lKdOV8g-57" vertex="1">
          <mxGeometry width="40" height="30" as="geometry">
            <mxRectangle width="40" height="30" as="alternateBounds" />
          </mxGeometry>
        </mxCell>
        <mxCell id="RfDgtVIOhLXn0lKdOV8g-59" value="name" style="shape=partialRectangle;html=1;whiteSpace=wrap;connectable=0;fillColor=none;top=0;left=0;bottom=0;right=0;align=left;spacingLeft=6;overflow=hidden;strokeColor=#457B9D;fontSize=16;rounded=1;labelBackgroundColor=none;fontColor=#1D3557;" parent="RfDgtVIOhLXn0lKdOV8g-57" vertex="1">
          <mxGeometry x="40" width="140" height="30" as="geometry">
            <mxRectangle width="140" height="30" as="alternateBounds" />
          </mxGeometry>
        </mxCell>
        <mxCell id="RfDgtVIOhLXn0lKdOV8g-51" value="" style="shape=tableRow;horizontal=0;startSize=0;swimlaneHead=0;swimlaneBody=0;top=0;left=0;bottom=0;right=0;collapsible=0;dropTarget=0;fillColor=none;points=[[0,0.5],[1,0.5]];portConstraint=eastwest;strokeColor=#457B9D;fontSize=16;rounded=1;labelBackgroundColor=none;fontColor=#1D3557;" parent="RfDgtVIOhLXn0lKdOV8g-47" vertex="1">
          <mxGeometry y="90" width="180" height="30" as="geometry" />
        </mxCell>
        <mxCell id="RfDgtVIOhLXn0lKdOV8g-52" value="" style="shape=partialRectangle;html=1;whiteSpace=wrap;connectable=0;fillColor=none;top=0;left=0;bottom=0;right=0;overflow=hidden;strokeColor=#457B9D;fontSize=16;rounded=1;labelBackgroundColor=none;fontColor=#1D3557;" parent="RfDgtVIOhLXn0lKdOV8g-51" vertex="1">
          <mxGeometry width="40" height="30" as="geometry">
            <mxRectangle width="40" height="30" as="alternateBounds" />
          </mxGeometry>
        </mxCell>
        <mxCell id="RfDgtVIOhLXn0lKdOV8g-53" value="password" style="shape=partialRectangle;html=1;whiteSpace=wrap;connectable=0;fillColor=none;top=0;left=0;bottom=0;right=0;align=left;spacingLeft=6;overflow=hidden;strokeColor=#457B9D;fontSize=16;rounded=1;labelBackgroundColor=none;fontColor=#1D3557;" parent="RfDgtVIOhLXn0lKdOV8g-51" vertex="1">
          <mxGeometry x="40" width="140" height="30" as="geometry">
            <mxRectangle width="140" height="30" as="alternateBounds" />
          </mxGeometry>
        </mxCell>
        <mxCell id="RfDgtVIOhLXn0lKdOV8g-54" value="" style="shape=tableRow;horizontal=0;startSize=0;swimlaneHead=0;swimlaneBody=0;top=0;left=0;bottom=0;right=0;collapsible=0;dropTarget=0;fillColor=none;points=[[0,0.5],[1,0.5]];portConstraint=eastwest;strokeColor=#457B9D;fontSize=16;rounded=1;labelBackgroundColor=none;fontColor=#1D3557;" parent="RfDgtVIOhLXn0lKdOV8g-47" vertex="1">
          <mxGeometry y="120" width="180" height="30" as="geometry" />
        </mxCell>
        <mxCell id="RfDgtVIOhLXn0lKdOV8g-55" value="" style="shape=partialRectangle;html=1;whiteSpace=wrap;connectable=0;fillColor=none;top=0;left=0;bottom=0;right=0;overflow=hidden;strokeColor=#457B9D;fontSize=16;rounded=1;labelBackgroundColor=none;fontColor=#1D3557;" parent="RfDgtVIOhLXn0lKdOV8g-54" vertex="1">
          <mxGeometry width="40" height="30" as="geometry">
            <mxRectangle width="40" height="30" as="alternateBounds" />
          </mxGeometry>
        </mxCell>
        <mxCell id="RfDgtVIOhLXn0lKdOV8g-56" value="email" style="shape=partialRectangle;html=1;whiteSpace=wrap;connectable=0;fillColor=none;top=0;left=0;bottom=0;right=0;align=left;spacingLeft=6;overflow=hidden;strokeColor=#457B9D;fontSize=16;rounded=1;labelBackgroundColor=none;fontColor=#1D3557;" parent="RfDgtVIOhLXn0lKdOV8g-54" vertex="1">
          <mxGeometry x="40" width="140" height="30" as="geometry">
            <mxRectangle width="140" height="30" as="alternateBounds" />
          </mxGeometry>
        </mxCell>
        <mxCell id="RfDgtVIOhLXn0lKdOV8g-60" value="Photo" style="shape=table;startSize=30;container=1;collapsible=0;childLayout=tableLayout;fixedRows=1;rowLines=0;fontStyle=1;strokeColor=#457B9D;fontSize=16;rounded=1;labelBackgroundColor=none;fillColor=#A8DADC;fontColor=#1D3557;" parent="1" vertex="1">
          <mxGeometry x="80" y="100" width="180" height="210" as="geometry" />
        </mxCell>
        <mxCell id="RfDgtVIOhLXn0lKdOV8g-61" value="" style="shape=tableRow;horizontal=0;startSize=0;swimlaneHead=0;swimlaneBody=0;top=0;left=0;bottom=0;right=0;collapsible=0;dropTarget=0;fillColor=none;points=[[0,0.5],[1,0.5]];portConstraint=eastwest;strokeColor=#457B9D;fontSize=16;rounded=1;labelBackgroundColor=none;fontColor=#1D3557;" parent="RfDgtVIOhLXn0lKdOV8g-60" vertex="1">
          <mxGeometry y="30" width="180" height="30" as="geometry" />
        </mxCell>
        <mxCell id="RfDgtVIOhLXn0lKdOV8g-62" value="PK" style="shape=partialRectangle;html=1;whiteSpace=wrap;connectable=0;fillColor=none;top=0;left=0;bottom=0;right=0;overflow=hidden;pointerEvents=1;strokeColor=#457B9D;fontSize=16;rounded=1;labelBackgroundColor=none;fontColor=#1D3557;" parent="RfDgtVIOhLXn0lKdOV8g-61" vertex="1">
          <mxGeometry width="40" height="30" as="geometry">
            <mxRectangle width="40" height="30" as="alternateBounds" />
          </mxGeometry>
        </mxCell>
        <mxCell id="RfDgtVIOhLXn0lKdOV8g-63" value="&lt;u&gt;id&lt;/u&gt;" style="shape=partialRectangle;html=1;whiteSpace=wrap;connectable=0;fillColor=none;top=0;left=0;bottom=0;right=0;align=left;spacingLeft=6;overflow=hidden;strokeColor=#457B9D;fontSize=16;rounded=1;labelBackgroundColor=none;fontColor=#1D3557;" parent="RfDgtVIOhLXn0lKdOV8g-61" vertex="1">
          <mxGeometry x="40" width="140" height="30" as="geometry">
            <mxRectangle width="140" height="30" as="alternateBounds" />
          </mxGeometry>
        </mxCell>
        <mxCell id="RfDgtVIOhLXn0lKdOV8g-64" style="shape=tableRow;horizontal=0;startSize=0;swimlaneHead=0;swimlaneBody=0;top=0;left=0;bottom=0;right=0;collapsible=0;dropTarget=0;fillColor=none;points=[[0,0.5],[1,0.5]];portConstraint=eastwest;strokeColor=#457B9D;fontSize=16;rounded=1;labelBackgroundColor=none;fontColor=#1D3557;" parent="RfDgtVIOhLXn0lKdOV8g-60" vertex="1">
          <mxGeometry y="60" width="180" height="30" as="geometry" />
        </mxCell>
        <mxCell id="RfDgtVIOhLXn0lKdOV8g-65" style="shape=partialRectangle;html=1;whiteSpace=wrap;connectable=0;fillColor=none;top=0;left=0;bottom=0;right=0;overflow=hidden;pointerEvents=1;strokeColor=#457B9D;fontSize=16;rounded=1;labelBackgroundColor=none;fontColor=#1D3557;" parent="RfDgtVIOhLXn0lKdOV8g-64" vertex="1">
          <mxGeometry width="40" height="30" as="geometry">
            <mxRectangle width="40" height="30" as="alternateBounds" />
          </mxGeometry>
        </mxCell>
        <mxCell id="RfDgtVIOhLXn0lKdOV8g-66" value="titre" style="shape=partialRectangle;html=1;whiteSpace=wrap;connectable=0;fillColor=none;top=0;left=0;bottom=0;right=0;align=left;spacingLeft=6;overflow=hidden;strokeColor=#457B9D;fontSize=16;rounded=1;labelBackgroundColor=none;fontColor=#1D3557;" parent="RfDgtVIOhLXn0lKdOV8g-64" vertex="1">
          <mxGeometry x="40" width="140" height="30" as="geometry">
            <mxRectangle width="140" height="30" as="alternateBounds" />
          </mxGeometry>
        </mxCell>
        <mxCell id="RfDgtVIOhLXn0lKdOV8g-67" value="" style="shape=tableRow;horizontal=0;startSize=0;swimlaneHead=0;swimlaneBody=0;top=0;left=0;bottom=0;right=0;collapsible=0;dropTarget=0;fillColor=none;points=[[0,0.5],[1,0.5]];portConstraint=eastwest;strokeColor=#457B9D;fontSize=16;rounded=1;labelBackgroundColor=none;fontColor=#1D3557;" parent="RfDgtVIOhLXn0lKdOV8g-60" vertex="1">
          <mxGeometry y="90" width="180" height="30" as="geometry" />
        </mxCell>
        <mxCell id="RfDgtVIOhLXn0lKdOV8g-68" value="" style="shape=partialRectangle;html=1;whiteSpace=wrap;connectable=0;fillColor=none;top=0;left=0;bottom=0;right=0;overflow=hidden;strokeColor=#457B9D;fontSize=16;rounded=1;labelBackgroundColor=none;fontColor=#1D3557;" parent="RfDgtVIOhLXn0lKdOV8g-67" vertex="1">
          <mxGeometry width="40" height="30" as="geometry">
            <mxRectangle width="40" height="30" as="alternateBounds" />
          </mxGeometry>
        </mxCell>
        <mxCell id="RfDgtVIOhLXn0lKdOV8g-69" value="image" style="shape=partialRectangle;html=1;whiteSpace=wrap;connectable=0;fillColor=none;top=0;left=0;bottom=0;right=0;align=left;spacingLeft=6;overflow=hidden;strokeColor=#457B9D;fontSize=16;rounded=1;labelBackgroundColor=none;fontColor=#1D3557;" parent="RfDgtVIOhLXn0lKdOV8g-67" vertex="1">
          <mxGeometry x="40" width="140" height="30" as="geometry">
            <mxRectangle width="140" height="30" as="alternateBounds" />
          </mxGeometry>
        </mxCell>
        <mxCell id="RfDgtVIOhLXn0lKdOV8g-70" value="" style="shape=tableRow;horizontal=0;startSize=0;swimlaneHead=0;swimlaneBody=0;top=0;left=0;bottom=0;right=0;collapsible=0;dropTarget=0;fillColor=none;points=[[0,0.5],[1,0.5]];portConstraint=eastwest;strokeColor=#457B9D;fontSize=16;rounded=1;labelBackgroundColor=none;fontColor=#1D3557;" parent="RfDgtVIOhLXn0lKdOV8g-60" vertex="1">
          <mxGeometry y="120" width="180" height="30" as="geometry" />
        </mxCell>
        <mxCell id="RfDgtVIOhLXn0lKdOV8g-71" value="" style="shape=partialRectangle;html=1;whiteSpace=wrap;connectable=0;fillColor=none;top=0;left=0;bottom=0;right=0;overflow=hidden;strokeColor=#457B9D;fontSize=16;rounded=1;labelBackgroundColor=none;fontColor=#1D3557;" parent="RfDgtVIOhLXn0lKdOV8g-70" vertex="1">
          <mxGeometry width="40" height="30" as="geometry">
            <mxRectangle width="40" height="30" as="alternateBounds" />
          </mxGeometry>
        </mxCell>
        <mxCell id="RfDgtVIOhLXn0lKdOV8g-72" value="descriptif" style="shape=partialRectangle;html=1;whiteSpace=wrap;connectable=0;fillColor=none;top=0;left=0;bottom=0;right=0;align=left;spacingLeft=6;overflow=hidden;strokeColor=#457B9D;fontSize=16;rounded=1;labelBackgroundColor=none;fontColor=#1D3557;" parent="RfDgtVIOhLXn0lKdOV8g-70" vertex="1">
          <mxGeometry x="40" width="140" height="30" as="geometry">
            <mxRectangle width="140" height="30" as="alternateBounds" />
          </mxGeometry>
        </mxCell>
        <mxCell id="RfDgtVIOhLXn0lKdOV8g-73" style="shape=tableRow;horizontal=0;startSize=0;swimlaneHead=0;swimlaneBody=0;top=0;left=0;bottom=0;right=0;collapsible=0;dropTarget=0;fillColor=none;points=[[0,0.5],[1,0.5]];portConstraint=eastwest;strokeColor=#457B9D;fontSize=16;rounded=1;labelBackgroundColor=none;fontColor=#1D3557;" parent="RfDgtVIOhLXn0lKdOV8g-60" vertex="1">
          <mxGeometry y="150" width="180" height="30" as="geometry" />
        </mxCell>
        <mxCell id="RfDgtVIOhLXn0lKdOV8g-74" style="shape=partialRectangle;html=1;whiteSpace=wrap;connectable=0;fillColor=none;top=0;left=0;bottom=0;right=0;overflow=hidden;strokeColor=#457B9D;fontSize=16;rounded=1;labelBackgroundColor=none;fontColor=#1D3557;" parent="RfDgtVIOhLXn0lKdOV8g-73" vertex="1">
          <mxGeometry width="40" height="30" as="geometry">
            <mxRectangle width="40" height="30" as="alternateBounds" />
          </mxGeometry>
        </mxCell>
        <mxCell id="RfDgtVIOhLXn0lKdOV8g-75" value="categorie" style="shape=partialRectangle;html=1;whiteSpace=wrap;connectable=0;fillColor=none;top=0;left=0;bottom=0;right=0;align=left;spacingLeft=6;overflow=hidden;strokeColor=#457B9D;fontSize=16;rounded=1;labelBackgroundColor=none;fontColor=#1D3557;" parent="RfDgtVIOhLXn0lKdOV8g-73" vertex="1">
          <mxGeometry x="40" width="140" height="30" as="geometry">
            <mxRectangle width="140" height="30" as="alternateBounds" />
          </mxGeometry>
        </mxCell>
        <mxCell id="RfDgtVIOhLXn0lKdOV8g-102" style="shape=tableRow;horizontal=0;startSize=0;swimlaneHead=0;swimlaneBody=0;top=0;left=0;bottom=0;right=0;collapsible=0;dropTarget=0;fillColor=none;points=[[0,0.5],[1,0.5]];portConstraint=eastwest;strokeColor=#457B9D;fontSize=16;rounded=1;labelBackgroundColor=none;fontColor=#1D3557;" parent="RfDgtVIOhLXn0lKdOV8g-60" vertex="1">
          <mxGeometry y="180" width="180" height="30" as="geometry" />
        </mxCell>
        <mxCell id="RfDgtVIOhLXn0lKdOV8g-103" style="shape=partialRectangle;html=1;whiteSpace=wrap;connectable=0;fillColor=none;top=0;left=0;bottom=0;right=0;overflow=hidden;strokeColor=#457B9D;fontSize=16;rounded=1;labelBackgroundColor=none;fontColor=#1D3557;" parent="RfDgtVIOhLXn0lKdOV8g-102" vertex="1">
          <mxGeometry width="40" height="30" as="geometry">
            <mxRectangle width="40" height="30" as="alternateBounds" />
          </mxGeometry>
        </mxCell>
        <mxCell id="RfDgtVIOhLXn0lKdOV8g-104" value="date_creation" style="shape=partialRectangle;html=1;whiteSpace=wrap;connectable=0;fillColor=none;top=0;left=0;bottom=0;right=0;align=left;spacingLeft=6;overflow=hidden;strokeColor=#457B9D;fontSize=16;rounded=1;labelBackgroundColor=none;fontColor=#1D3557;" parent="RfDgtVIOhLXn0lKdOV8g-102" vertex="1">
          <mxGeometry x="40" width="140" height="30" as="geometry">
            <mxRectangle width="140" height="30" as="alternateBounds" />
          </mxGeometry>
        </mxCell>
        <mxCell id="RfDgtVIOhLXn0lKdOV8g-110" style="edgeStyle=orthogonalEdgeStyle;rounded=1;orthogonalLoop=1;jettySize=auto;html=1;entryX=0.5;entryY=1;entryDx=0;entryDy=0;labelBackgroundColor=none;strokeColor=#457B9D;fontColor=default;" parent="1" source="RfDgtVIOhLXn0lKdOV8g-76" target="RfDgtVIOhLXn0lKdOV8g-38" edge="1">
          <mxGeometry relative="1" as="geometry" />
        </mxCell>
        <mxCell id="RfDgtVIOhLXn0lKdOV8g-76" value="Commentaire" style="shape=table;startSize=30;container=1;collapsible=0;childLayout=tableLayout;fixedRows=1;rowLines=0;fontStyle=1;strokeColor=#457B9D;fontSize=16;rounded=1;labelBackgroundColor=none;fillColor=#A8DADC;fontColor=#1D3557;" parent="1" vertex="1">
          <mxGeometry x="90" y="600" width="180" height="210" as="geometry" />
        </mxCell>
        <mxCell id="RfDgtVIOhLXn0lKdOV8g-77" value="" style="shape=tableRow;horizontal=0;startSize=0;swimlaneHead=0;swimlaneBody=0;top=0;left=0;bottom=0;right=0;collapsible=0;dropTarget=0;fillColor=none;points=[[0,0.5],[1,0.5]];portConstraint=eastwest;strokeColor=#457B9D;fontSize=16;rounded=1;labelBackgroundColor=none;fontColor=#1D3557;" parent="RfDgtVIOhLXn0lKdOV8g-76" vertex="1">
          <mxGeometry y="30" width="180" height="30" as="geometry" />
        </mxCell>
        <mxCell id="RfDgtVIOhLXn0lKdOV8g-78" value="PK" style="shape=partialRectangle;html=1;whiteSpace=wrap;connectable=0;fillColor=none;top=0;left=0;bottom=0;right=0;overflow=hidden;pointerEvents=1;strokeColor=#457B9D;fontSize=16;rounded=1;labelBackgroundColor=none;fontColor=#1D3557;" parent="RfDgtVIOhLXn0lKdOV8g-77" vertex="1">
          <mxGeometry width="40" height="30" as="geometry">
            <mxRectangle width="40" height="30" as="alternateBounds" />
          </mxGeometry>
        </mxCell>
        <mxCell id="RfDgtVIOhLXn0lKdOV8g-79" value="&lt;u&gt;id&lt;/u&gt;" style="shape=partialRectangle;html=1;whiteSpace=wrap;connectable=0;fillColor=none;top=0;left=0;bottom=0;right=0;align=left;spacingLeft=6;overflow=hidden;strokeColor=#457B9D;fontSize=16;rounded=1;labelBackgroundColor=none;fontColor=#1D3557;" parent="RfDgtVIOhLXn0lKdOV8g-77" vertex="1">
          <mxGeometry x="40" width="140" height="30" as="geometry">
            <mxRectangle width="140" height="30" as="alternateBounds" />
          </mxGeometry>
        </mxCell>
        <mxCell id="RfDgtVIOhLXn0lKdOV8g-80" style="shape=tableRow;horizontal=0;startSize=0;swimlaneHead=0;swimlaneBody=0;top=0;left=0;bottom=0;right=0;collapsible=0;dropTarget=0;fillColor=none;points=[[0,0.5],[1,0.5]];portConstraint=eastwest;strokeColor=#457B9D;fontSize=16;rounded=1;labelBackgroundColor=none;fontColor=#1D3557;" parent="RfDgtVIOhLXn0lKdOV8g-76" vertex="1">
          <mxGeometry y="60" width="180" height="30" as="geometry" />
        </mxCell>
        <mxCell id="RfDgtVIOhLXn0lKdOV8g-81" style="shape=partialRectangle;html=1;whiteSpace=wrap;connectable=0;fillColor=none;top=0;left=0;bottom=0;right=0;overflow=hidden;pointerEvents=1;strokeColor=#457B9D;fontSize=16;rounded=1;labelBackgroundColor=none;fontColor=#1D3557;" parent="RfDgtVIOhLXn0lKdOV8g-80" vertex="1">
          <mxGeometry width="40" height="30" as="geometry">
            <mxRectangle width="40" height="30" as="alternateBounds" />
          </mxGeometry>
        </mxCell>
        <mxCell id="RfDgtVIOhLXn0lKdOV8g-82" value="photo_id" style="shape=partialRectangle;html=1;whiteSpace=wrap;connectable=0;fillColor=none;top=0;left=0;bottom=0;right=0;align=left;spacingLeft=6;overflow=hidden;strokeColor=#457B9D;fontSize=16;rounded=1;labelBackgroundColor=none;fontColor=#1D3557;" parent="RfDgtVIOhLXn0lKdOV8g-80" vertex="1">
          <mxGeometry x="40" width="140" height="30" as="geometry">
            <mxRectangle width="140" height="30" as="alternateBounds" />
          </mxGeometry>
        </mxCell>
        <mxCell id="RfDgtVIOhLXn0lKdOV8g-83" value="" style="shape=tableRow;horizontal=0;startSize=0;swimlaneHead=0;swimlaneBody=0;top=0;left=0;bottom=0;right=0;collapsible=0;dropTarget=0;fillColor=none;points=[[0,0.5],[1,0.5]];portConstraint=eastwest;strokeColor=#457B9D;fontSize=16;rounded=1;labelBackgroundColor=none;fontColor=#1D3557;" parent="RfDgtVIOhLXn0lKdOV8g-76" vertex="1">
          <mxGeometry y="90" width="180" height="30" as="geometry" />
        </mxCell>
        <mxCell id="RfDgtVIOhLXn0lKdOV8g-84" value="" style="shape=partialRectangle;html=1;whiteSpace=wrap;connectable=0;fillColor=none;top=0;left=0;bottom=0;right=0;overflow=hidden;strokeColor=#457B9D;fontSize=16;rounded=1;labelBackgroundColor=none;fontColor=#1D3557;" parent="RfDgtVIOhLXn0lKdOV8g-83" vertex="1">
          <mxGeometry width="40" height="30" as="geometry">
            <mxRectangle width="40" height="30" as="alternateBounds" />
          </mxGeometry>
        </mxCell>
        <mxCell id="RfDgtVIOhLXn0lKdOV8g-85" value="contenu" style="shape=partialRectangle;html=1;whiteSpace=wrap;connectable=0;fillColor=none;top=0;left=0;bottom=0;right=0;align=left;spacingLeft=6;overflow=hidden;strokeColor=#457B9D;fontSize=16;rounded=1;labelBackgroundColor=none;fontColor=#1D3557;" parent="RfDgtVIOhLXn0lKdOV8g-83" vertex="1">
          <mxGeometry x="40" width="140" height="30" as="geometry">
            <mxRectangle width="140" height="30" as="alternateBounds" />
          </mxGeometry>
        </mxCell>
        <mxCell id="RfDgtVIOhLXn0lKdOV8g-86" value="" style="shape=tableRow;horizontal=0;startSize=0;swimlaneHead=0;swimlaneBody=0;top=0;left=0;bottom=0;right=0;collapsible=0;dropTarget=0;fillColor=none;points=[[0,0.5],[1,0.5]];portConstraint=eastwest;strokeColor=#457B9D;fontSize=16;rounded=1;labelBackgroundColor=none;fontColor=#1D3557;" parent="RfDgtVIOhLXn0lKdOV8g-76" vertex="1">
          <mxGeometry y="120" width="180" height="30" as="geometry" />
        </mxCell>
        <mxCell id="RfDgtVIOhLXn0lKdOV8g-87" value="" style="shape=partialRectangle;html=1;whiteSpace=wrap;connectable=0;fillColor=none;top=0;left=0;bottom=0;right=0;overflow=hidden;strokeColor=#457B9D;fontSize=16;rounded=1;labelBackgroundColor=none;fontColor=#1D3557;" parent="RfDgtVIOhLXn0lKdOV8g-86" vertex="1">
          <mxGeometry width="40" height="30" as="geometry">
            <mxRectangle width="40" height="30" as="alternateBounds" />
          </mxGeometry>
        </mxCell>
        <mxCell id="RfDgtVIOhLXn0lKdOV8g-88" value="content" style="shape=partialRectangle;html=1;whiteSpace=wrap;connectable=0;fillColor=none;top=0;left=0;bottom=0;right=0;align=left;spacingLeft=6;overflow=hidden;strokeColor=#457B9D;fontSize=16;rounded=1;labelBackgroundColor=none;fontColor=#1D3557;" parent="RfDgtVIOhLXn0lKdOV8g-86" vertex="1">
          <mxGeometry x="40" width="140" height="30" as="geometry">
            <mxRectangle width="140" height="30" as="alternateBounds" />
          </mxGeometry>
        </mxCell>
        <mxCell id="RfDgtVIOhLXn0lKdOV8g-89" style="shape=tableRow;horizontal=0;startSize=0;swimlaneHead=0;swimlaneBody=0;top=0;left=0;bottom=0;right=0;collapsible=0;dropTarget=0;fillColor=none;points=[[0,0.5],[1,0.5]];portConstraint=eastwest;strokeColor=#457B9D;fontSize=16;rounded=1;labelBackgroundColor=none;fontColor=#1D3557;" parent="RfDgtVIOhLXn0lKdOV8g-76" vertex="1">
          <mxGeometry y="150" width="180" height="30" as="geometry" />
        </mxCell>
        <mxCell id="RfDgtVIOhLXn0lKdOV8g-90" style="shape=partialRectangle;html=1;whiteSpace=wrap;connectable=0;fillColor=none;top=0;left=0;bottom=0;right=0;overflow=hidden;strokeColor=#457B9D;fontSize=16;rounded=1;labelBackgroundColor=none;fontColor=#1D3557;" parent="RfDgtVIOhLXn0lKdOV8g-89" vertex="1">
          <mxGeometry width="40" height="30" as="geometry">
            <mxRectangle width="40" height="30" as="alternateBounds" />
          </mxGeometry>
        </mxCell>
        <mxCell id="RfDgtVIOhLXn0lKdOV8g-91" value="catégorie" style="shape=partialRectangle;html=1;whiteSpace=wrap;connectable=0;fillColor=none;top=0;left=0;bottom=0;right=0;align=left;spacingLeft=6;overflow=hidden;strokeColor=#457B9D;fontSize=16;rounded=1;labelBackgroundColor=none;fontColor=#1D3557;" parent="RfDgtVIOhLXn0lKdOV8g-89" vertex="1">
          <mxGeometry x="40" width="140" height="30" as="geometry">
            <mxRectangle width="140" height="30" as="alternateBounds" />
          </mxGeometry>
        </mxCell>
        <mxCell id="RfDgtVIOhLXn0lKdOV8g-105" style="shape=tableRow;horizontal=0;startSize=0;swimlaneHead=0;swimlaneBody=0;top=0;left=0;bottom=0;right=0;collapsible=0;dropTarget=0;fillColor=none;points=[[0,0.5],[1,0.5]];portConstraint=eastwest;strokeColor=#457B9D;fontSize=16;rounded=1;labelBackgroundColor=none;fontColor=#1D3557;" parent="RfDgtVIOhLXn0lKdOV8g-76" vertex="1">
          <mxGeometry y="180" width="180" height="30" as="geometry" />
        </mxCell>
        <mxCell id="RfDgtVIOhLXn0lKdOV8g-106" style="shape=partialRectangle;html=1;whiteSpace=wrap;connectable=0;fillColor=none;top=0;left=0;bottom=0;right=0;overflow=hidden;strokeColor=#457B9D;fontSize=16;rounded=1;labelBackgroundColor=none;fontColor=#1D3557;" parent="RfDgtVIOhLXn0lKdOV8g-105" vertex="1">
          <mxGeometry width="40" height="30" as="geometry">
            <mxRectangle width="40" height="30" as="alternateBounds" />
          </mxGeometry>
        </mxCell>
        <mxCell id="RfDgtVIOhLXn0lKdOV8g-107" value="date_creation" style="shape=partialRectangle;html=1;whiteSpace=wrap;connectable=0;fillColor=none;top=0;left=0;bottom=0;right=0;align=left;spacingLeft=6;overflow=hidden;strokeColor=#457B9D;fontSize=16;rounded=1;labelBackgroundColor=none;fontColor=#1D3557;" parent="RfDgtVIOhLXn0lKdOV8g-105" vertex="1">
          <mxGeometry x="40" width="140" height="30" as="geometry">
            <mxRectangle width="140" height="30" as="alternateBounds" />
          </mxGeometry>
        </mxCell>
        <mxCell id="RfDgtVIOhLXn0lKdOV8g-101" value="FK" style="shape=partialRectangle;html=1;whiteSpace=wrap;connectable=0;fillColor=none;top=0;left=0;bottom=0;right=0;overflow=hidden;pointerEvents=1;strokeColor=#457B9D;fontSize=16;rounded=1;labelBackgroundColor=none;fontColor=#1D3557;" parent="1" vertex="1">
          <mxGeometry x="90" y="660" width="40" height="30" as="geometry">
            <mxRectangle width="40" height="30" as="alternateBounds" />
          </mxGeometry>
        </mxCell>
        <mxCell id="RfDgtVIOhLXn0lKdOV8g-115" value="&lt;font style=&quot;font-size: 29px;&quot;&gt;1,n&lt;/font&gt;" style="text;html=1;align=center;verticalAlign=middle;resizable=0;points=[];autosize=1;strokeColor=none;fillColor=none;fontColor=#1D3557;" parent="1" vertex="1">
          <mxGeometry x="344" y="263" width="58" height="47" as="geometry" />
        </mxCell>
        <mxCell id="RfDgtVIOhLXn0lKdOV8g-116" value="&lt;font style=&quot;font-size: 29px;&quot;&gt;0,n&lt;/font&gt;" style="text;html=1;align=center;verticalAlign=middle;resizable=0;points=[];autosize=1;strokeColor=none;fillColor=none;fontColor=#1D3557;" parent="1" vertex="1">
          <mxGeometry x="723" y="263" width="58" height="47" as="geometry" />
        </mxCell>
        <mxCell id="RfDgtVIOhLXn0lKdOV8g-117" value="&lt;font style=&quot;font-size: 29px;&quot;&gt;0,n&lt;/font&gt;" style="text;html=1;align=center;verticalAlign=middle;resizable=0;points=[];autosize=1;strokeColor=none;fillColor=none;fontColor=#1D3557;" parent="1" vertex="1">
          <mxGeometry x="723" y="643" width="58" height="47" as="geometry" />
        </mxCell>
        <mxCell id="RfDgtVIOhLXn0lKdOV8g-118" value="&lt;font style=&quot;font-size: 29px;&quot;&gt;0,n&lt;/font&gt;" style="text;html=1;align=center;verticalAlign=middle;resizable=0;points=[];autosize=1;strokeColor=none;fillColor=none;fontColor=#1D3557;" parent="1" vertex="1">
          <mxGeometry x="96" y="323" width="58" height="47" as="geometry" />
        </mxCell>
        <mxCell id="RfDgtVIOhLXn0lKdOV8g-119" value="&lt;font style=&quot;font-size: 29px;&quot;&gt;1,1&lt;/font&gt;" style="text;html=1;align=center;verticalAlign=middle;resizable=0;points=[];autosize=1;strokeColor=none;fillColor=none;fontColor=#1D3557;" parent="1" vertex="1">
          <mxGeometry x="96" y="503" width="58" height="47" as="geometry" />
        </mxCell>
        <mxCell id="RfDgtVIOhLXn0lKdOV8g-120" value="&lt;font style=&quot;font-size: 29px;&quot;&gt;1,n&lt;/font&gt;" style="text;html=1;align=center;verticalAlign=middle;resizable=0;points=[];autosize=1;strokeColor=none;fillColor=none;fontColor=#1D3557;" parent="1" vertex="1">
          <mxGeometry x="326" y="710" width="58" height="47" as="geometry" />
        </mxCell>
      </root>
    </mxGraphModel>
  </diagram>
</mxfile>
